<mxfile host="app.diagrams.net" agent="Mozilla/5.0 (Windows NT 10.0; Win64; x64) AppleWebKit/537.36 (KHTML, like Gecko) Chrome/140.0.0.0 Safari/537.36" version="28.2.5">
  <diagram name="Страница — 1" id="OvYeKo3pjxLDjuqyDmn3">
    <mxGraphModel dx="1281" dy="1739" grid="1" gridSize="10" guides="1" tooltips="1" connect="1" arrows="1" fold="1" page="1" pageScale="1" pageWidth="827" pageHeight="1169" math="0" shadow="0">
      <root>
        <mxCell id="0" />
        <mxCell id="1" parent="0" />
        <mxCell id="TBWsr7BE5B2xq9L9UYvO-1" value="Guest" style="shape=umlActor;verticalLabelPosition=bottom;verticalAlign=top;html=1;outlineConnect=0;" parent="1" vertex="1">
          <mxGeometry x="30" y="60" width="30" height="60" as="geometry" />
        </mxCell>
        <mxCell id="TBWsr7BE5B2xq9L9UYvO-4" value="User" style="shape=umlActor;verticalLabelPosition=bottom;verticalAlign=top;html=1;outlineConnect=0;" parent="1" vertex="1">
          <mxGeometry x="30" y="300" width="30" height="60" as="geometry" />
        </mxCell>
        <mxCell id="TBWsr7BE5B2xq9L9UYvO-5" value="" style="rounded=0;whiteSpace=wrap;html=1;" parent="1" vertex="1">
          <mxGeometry x="155" y="20" width="595" height="620" as="geometry" />
        </mxCell>
        <mxCell id="TBWsr7BE5B2xq9L9UYvO-7" value="Admin" style="shape=umlActor;verticalLabelPosition=bottom;verticalAlign=top;html=1;outlineConnect=0;" parent="1" vertex="1">
          <mxGeometry x="50" y="540" width="30" height="60" as="geometry" />
        </mxCell>
        <mxCell id="TBWsr7BE5B2xq9L9UYvO-8" value="System" style="text;html=1;align=center;verticalAlign=middle;whiteSpace=wrap;rounded=0;" parent="1" vertex="1">
          <mxGeometry x="300" y="-20" width="60" height="30" as="geometry" />
        </mxCell>
        <mxCell id="TBWsr7BE5B2xq9L9UYvO-9" value="Sign up" style="ellipse;whiteSpace=wrap;html=1;" parent="1" vertex="1">
          <mxGeometry x="170" y="50" width="110" height="40" as="geometry" />
        </mxCell>
        <mxCell id="TBWsr7BE5B2xq9L9UYvO-10" value="Change language" style="ellipse;whiteSpace=wrap;html=1;" parent="1" vertex="1">
          <mxGeometry x="170" y="130" width="110" height="40" as="geometry" />
        </mxCell>
        <mxCell id="TBWsr7BE5B2xq9L9UYvO-12" value="Sign in" style="ellipse;whiteSpace=wrap;html=1;" parent="1" vertex="1">
          <mxGeometry x="285" y="50" width="110" height="40" as="geometry" />
        </mxCell>
        <mxCell id="TBWsr7BE5B2xq9L9UYvO-15" style="edgeStyle=orthogonalEdgeStyle;rounded=0;orthogonalLoop=1;jettySize=auto;html=1;exitX=0;exitY=0.3333333333333333;exitDx=0;exitDy=0;exitPerimeter=0;entryX=0;entryY=0.3333333333333333;entryDx=0;entryDy=0;entryPerimeter=0;endArrow=block;endFill=0;" parent="1" source="TBWsr7BE5B2xq9L9UYvO-4" target="TBWsr7BE5B2xq9L9UYvO-1" edge="1">
          <mxGeometry relative="1" as="geometry" />
        </mxCell>
        <mxCell id="TBWsr7BE5B2xq9L9UYvO-18" value="Contact support" style="ellipse;whiteSpace=wrap;html=1;" parent="1" vertex="1">
          <mxGeometry x="285" y="130" width="110" height="40" as="geometry" />
        </mxCell>
        <mxCell id="TBWsr7BE5B2xq9L9UYvO-19" value="" style="endArrow=classic;html=1;rounded=0;exitX=1;exitY=0.3333333333333333;exitDx=0;exitDy=0;exitPerimeter=0;entryX=0.5;entryY=1;entryDx=0;entryDy=0;" parent="1" source="TBWsr7BE5B2xq9L9UYvO-1" target="TBWsr7BE5B2xq9L9UYvO-12" edge="1">
          <mxGeometry width="50" height="50" relative="1" as="geometry">
            <mxPoint x="330" y="220" as="sourcePoint" />
            <mxPoint x="380" y="170" as="targetPoint" />
            <Array as="points">
              <mxPoint x="120" y="110" />
              <mxPoint x="340" y="110" />
            </Array>
          </mxGeometry>
        </mxCell>
        <mxCell id="TBWsr7BE5B2xq9L9UYvO-20" value="" style="endArrow=classic;html=1;rounded=0;" parent="1" target="TBWsr7BE5B2xq9L9UYvO-18" edge="1">
          <mxGeometry width="50" height="50" relative="1" as="geometry">
            <mxPoint x="340" y="110" as="sourcePoint" />
            <mxPoint x="380" y="170" as="targetPoint" />
          </mxGeometry>
        </mxCell>
        <mxCell id="TBWsr7BE5B2xq9L9UYvO-21" value="" style="endArrow=classic;html=1;rounded=0;entryX=0.5;entryY=0;entryDx=0;entryDy=0;" parent="1" target="TBWsr7BE5B2xq9L9UYvO-10" edge="1">
          <mxGeometry width="50" height="50" relative="1" as="geometry">
            <mxPoint x="225" y="110" as="sourcePoint" />
            <mxPoint x="380" y="170" as="targetPoint" />
          </mxGeometry>
        </mxCell>
        <mxCell id="TBWsr7BE5B2xq9L9UYvO-22" value="" style="endArrow=classic;html=1;rounded=0;entryX=0.5;entryY=1;entryDx=0;entryDy=0;" parent="1" target="TBWsr7BE5B2xq9L9UYvO-9" edge="1">
          <mxGeometry width="50" height="50" relative="1" as="geometry">
            <mxPoint x="225" y="110" as="sourcePoint" />
            <mxPoint x="380" y="170" as="targetPoint" />
          </mxGeometry>
        </mxCell>
        <mxCell id="TBWsr7BE5B2xq9L9UYvO-23" value="" style="endArrow=classic;html=1;rounded=0;exitX=0.5;exitY=0;exitDx=0;exitDy=0;entryX=0;entryY=0;entryDx=0;entryDy=0;" parent="1" source="TBWsr7BE5B2xq9L9UYvO-12" target="TBWsr7BE5B2xq9L9UYvO-25" edge="1">
          <mxGeometry width="50" height="50" relative="1" as="geometry">
            <mxPoint x="330" y="220" as="sourcePoint" />
            <mxPoint x="600" y="30" as="targetPoint" />
            <Array as="points">
              <mxPoint x="340" y="36" />
            </Array>
          </mxGeometry>
        </mxCell>
        <mxCell id="TBWsr7BE5B2xq9L9UYvO-25" value="DB: change user Info" style="ellipse;whiteSpace=wrap;html=1;" parent="1" vertex="1">
          <mxGeometry x="600" y="30" width="110" height="40" as="geometry" />
        </mxCell>
        <mxCell id="TBWsr7BE5B2xq9L9UYvO-27" value="" style="endArrow=classic;html=1;rounded=0;exitX=1;exitY=0.5;exitDx=0;exitDy=0;" parent="1" source="TBWsr7BE5B2xq9L9UYvO-18" target="TBWsr7BE5B2xq9L9UYvO-28" edge="1">
          <mxGeometry x="-0.0007" width="50" height="50" relative="1" as="geometry">
            <mxPoint x="380" y="200" as="sourcePoint" />
            <mxPoint x="600" y="150" as="targetPoint" />
            <mxPoint as="offset" />
          </mxGeometry>
        </mxCell>
        <mxCell id="TBWsr7BE5B2xq9L9UYvO-28" value="DB: save message" style="ellipse;whiteSpace=wrap;html=1;" parent="1" vertex="1">
          <mxGeometry x="600" y="90" width="110" height="40" as="geometry" />
        </mxCell>
        <mxCell id="TBWsr7BE5B2xq9L9UYvO-29" value="Log out" style="ellipse;whiteSpace=wrap;html=1;" parent="1" vertex="1">
          <mxGeometry x="170" y="180" width="110" height="40" as="geometry" />
        </mxCell>
        <mxCell id="TBWsr7BE5B2xq9L9UYvO-32" value="Generate portfolio" style="ellipse;whiteSpace=wrap;html=1;" parent="1" vertex="1">
          <mxGeometry x="170" y="260" width="110" height="40" as="geometry" />
        </mxCell>
        <mxCell id="TBWsr7BE5B2xq9L9UYvO-33" value="Analyze Portfolio" style="ellipse;whiteSpace=wrap;html=1;" parent="1" vertex="1">
          <mxGeometry x="290" y="180" width="110" height="40" as="geometry" />
        </mxCell>
        <mxCell id="TBWsr7BE5B2xq9L9UYvO-34" value="save portfolio" style="ellipse;whiteSpace=wrap;html=1;" parent="1" vertex="1">
          <mxGeometry x="410" y="180" width="110" height="40" as="geometry" />
        </mxCell>
        <mxCell id="TBWsr7BE5B2xq9L9UYvO-35" value="delete portfolio" style="ellipse;whiteSpace=wrap;html=1;" parent="1" vertex="1">
          <mxGeometry x="410" y="260" width="110" height="40" as="geometry" />
        </mxCell>
        <mxCell id="TBWsr7BE5B2xq9L9UYvO-36" value="" style="endArrow=classic;html=1;rounded=0;exitX=1;exitY=0.5;exitDx=0;exitDy=0;" parent="1" source="TBWsr7BE5B2xq9L9UYvO-34" edge="1">
          <mxGeometry width="50" height="50" relative="1" as="geometry">
            <mxPoint x="500" y="180" as="sourcePoint" />
            <mxPoint x="600" y="200" as="targetPoint" />
          </mxGeometry>
        </mxCell>
        <mxCell id="TBWsr7BE5B2xq9L9UYvO-37" value="" style="endArrow=classic;html=1;rounded=0;exitX=1;exitY=0.5;exitDx=0;exitDy=0;" parent="1" source="TBWsr7BE5B2xq9L9UYvO-35" edge="1">
          <mxGeometry width="50" height="50" relative="1" as="geometry">
            <mxPoint x="500" y="180" as="sourcePoint" />
            <mxPoint x="600" y="200" as="targetPoint" />
          </mxGeometry>
        </mxCell>
        <mxCell id="TBWsr7BE5B2xq9L9UYvO-38" value="DB: get portfolio info" style="ellipse;whiteSpace=wrap;html=1;" parent="1" vertex="1">
          <mxGeometry x="600" y="180" width="110" height="40" as="geometry" />
        </mxCell>
        <mxCell id="TBWsr7BE5B2xq9L9UYvO-39" value="View my portfolios" style="ellipse;whiteSpace=wrap;html=1;" parent="1" vertex="1">
          <mxGeometry x="290" y="260" width="110" height="40" as="geometry" />
        </mxCell>
        <mxCell id="TBWsr7BE5B2xq9L9UYvO-40" value="" style="endArrow=classic;html=1;rounded=0;exitX=0.5;exitY=0;exitDx=0;exitDy=0;entryX=0;entryY=0.5;entryDx=0;entryDy=0;" parent="1" source="TBWsr7BE5B2xq9L9UYvO-39" target="TBWsr7BE5B2xq9L9UYvO-38" edge="1">
          <mxGeometry width="50" height="50" relative="1" as="geometry">
            <mxPoint x="330" y="300" as="sourcePoint" />
            <mxPoint x="380" y="250" as="targetPoint" />
            <Array as="points">
              <mxPoint x="430" y="260" />
              <mxPoint x="530" y="240" />
            </Array>
          </mxGeometry>
        </mxCell>
        <mxCell id="TBWsr7BE5B2xq9L9UYvO-41" value="" style="endArrow=classic;html=1;rounded=0;exitX=1;exitY=0.3333333333333333;exitDx=0;exitDy=0;exitPerimeter=0;entryX=0.5;entryY=1;entryDx=0;entryDy=0;" parent="1" source="TBWsr7BE5B2xq9L9UYvO-4" target="TBWsr7BE5B2xq9L9UYvO-34" edge="1">
          <mxGeometry width="50" height="50" relative="1" as="geometry">
            <mxPoint x="330" y="300" as="sourcePoint" />
            <mxPoint x="380" y="250" as="targetPoint" />
            <Array as="points">
              <mxPoint x="120" y="240" />
              <mxPoint x="465" y="240" />
            </Array>
          </mxGeometry>
        </mxCell>
        <mxCell id="TBWsr7BE5B2xq9L9UYvO-42" value="" style="endArrow=classic;html=1;rounded=0;exitX=0.5;exitY=0;exitDx=0;exitDy=0;" parent="1" source="TBWsr7BE5B2xq9L9UYvO-33" target="TBWsr7BE5B2xq9L9UYvO-38" edge="1">
          <mxGeometry width="50" height="50" relative="1" as="geometry">
            <mxPoint x="330" y="260" as="sourcePoint" />
            <mxPoint x="380" y="210" as="targetPoint" />
            <Array as="points">
              <mxPoint x="560" y="160" />
            </Array>
          </mxGeometry>
        </mxCell>
        <mxCell id="TBWsr7BE5B2xq9L9UYvO-43" value="" style="endArrow=classic;html=1;rounded=0;entryX=0.5;entryY=1;entryDx=0;entryDy=0;" parent="1" target="TBWsr7BE5B2xq9L9UYvO-29" edge="1">
          <mxGeometry width="50" height="50" relative="1" as="geometry">
            <mxPoint x="225" y="240" as="sourcePoint" />
            <mxPoint x="380" y="210" as="targetPoint" />
          </mxGeometry>
        </mxCell>
        <mxCell id="TBWsr7BE5B2xq9L9UYvO-45" value="" style="endArrow=classic;html=1;rounded=0;entryX=0.563;entryY=0.998;entryDx=0;entryDy=0;entryPerimeter=0;" parent="1" target="TBWsr7BE5B2xq9L9UYvO-33" edge="1">
          <mxGeometry width="50" height="50" relative="1" as="geometry">
            <mxPoint x="352" y="240" as="sourcePoint" />
            <mxPoint x="380" y="210" as="targetPoint" />
          </mxGeometry>
        </mxCell>
        <mxCell id="TBWsr7BE5B2xq9L9UYvO-46" value="" style="endArrow=classic;html=1;rounded=0;exitX=1;exitY=0.3333333333333333;exitDx=0;exitDy=0;exitPerimeter=0;entryX=0.5;entryY=1;entryDx=0;entryDy=0;" parent="1" source="TBWsr7BE5B2xq9L9UYvO-4" target="TBWsr7BE5B2xq9L9UYvO-35" edge="1">
          <mxGeometry width="50" height="50" relative="1" as="geometry">
            <mxPoint x="330" y="260" as="sourcePoint" />
            <mxPoint x="380" y="210" as="targetPoint" />
            <Array as="points">
              <mxPoint x="465" y="320" />
            </Array>
          </mxGeometry>
        </mxCell>
        <mxCell id="TBWsr7BE5B2xq9L9UYvO-47" value="" style="endArrow=classic;html=1;rounded=0;entryX=0.5;entryY=1;entryDx=0;entryDy=0;" parent="1" target="TBWsr7BE5B2xq9L9UYvO-39" edge="1">
          <mxGeometry width="50" height="50" relative="1" as="geometry">
            <mxPoint x="345" y="320" as="sourcePoint" />
            <mxPoint x="380" y="210" as="targetPoint" />
          </mxGeometry>
        </mxCell>
        <mxCell id="TBWsr7BE5B2xq9L9UYvO-48" value="" style="endArrow=classic;html=1;rounded=0;entryX=0.5;entryY=1;entryDx=0;entryDy=0;" parent="1" target="TBWsr7BE5B2xq9L9UYvO-32" edge="1">
          <mxGeometry width="50" height="50" relative="1" as="geometry">
            <mxPoint x="225" y="320" as="sourcePoint" />
            <mxPoint x="380" y="210" as="targetPoint" />
          </mxGeometry>
        </mxCell>
        <mxCell id="TBWsr7BE5B2xq9L9UYvO-49" value="" style="endArrow=classic;html=1;rounded=0;exitX=0.746;exitY=0.902;exitDx=0;exitDy=0;exitPerimeter=0;entryX=0.5;entryY=0;entryDx=0;entryDy=0;" parent="1" source="TBWsr7BE5B2xq9L9UYvO-32" target="TBWsr7BE5B2xq9L9UYvO-51" edge="1">
          <mxGeometry width="50" height="50" relative="1" as="geometry">
            <mxPoint x="330" y="330" as="sourcePoint" />
            <mxPoint x="380" y="280" as="targetPoint" />
          </mxGeometry>
        </mxCell>
        <mxCell id="TBWsr7BE5B2xq9L9UYvO-51" value="Start optimization module" style="ellipse;whiteSpace=wrap;html=1;" parent="1" vertex="1">
          <mxGeometry x="410" y="340" width="110" height="40" as="geometry" />
        </mxCell>
        <mxCell id="TBWsr7BE5B2xq9L9UYvO-53" value="solver: solve model" style="ellipse;whiteSpace=wrap;html=1;" parent="1" vertex="1">
          <mxGeometry x="780" y="340" width="110" height="40" as="geometry" />
        </mxCell>
        <mxCell id="TBWsr7BE5B2xq9L9UYvO-54" value="" style="endArrow=classic;html=1;rounded=0;exitX=1;exitY=0.5;exitDx=0;exitDy=0;entryX=0;entryY=0.5;entryDx=0;entryDy=0;" parent="1" source="TBWsr7BE5B2xq9L9UYvO-51" target="TBWsr7BE5B2xq9L9UYvO-62" edge="1">
          <mxGeometry x="0.1021" y="-2" width="50" height="50" relative="1" as="geometry">
            <mxPoint x="510" y="320" as="sourcePoint" />
            <mxPoint x="590" y="285" as="targetPoint" />
            <mxPoint as="offset" />
          </mxGeometry>
        </mxCell>
        <mxCell id="TBWsr7BE5B2xq9L9UYvO-55" value="include" style="endArrow=classic;html=1;rounded=0;exitX=1;exitY=0.5;exitDx=0;exitDy=0;entryX=0;entryY=0.5;entryDx=0;entryDy=0;" parent="1" source="TBWsr7BE5B2xq9L9UYvO-51" target="TBWsr7BE5B2xq9L9UYvO-53" edge="1">
          <mxGeometry width="50" height="50" relative="1" as="geometry">
            <mxPoint x="510" y="320" as="sourcePoint" />
            <mxPoint x="560" y="270" as="targetPoint" />
          </mxGeometry>
        </mxCell>
        <mxCell id="TBWsr7BE5B2xq9L9UYvO-63" value="" style="edgeStyle=orthogonalEdgeStyle;rounded=0;orthogonalLoop=1;jettySize=auto;html=1;exitX=0.5;exitY=1;exitDx=0;exitDy=0;entryX=0;entryY=0.5;entryDx=0;entryDy=0;" parent="1" source="TBWsr7BE5B2xq9L9UYvO-57" target="TBWsr7BE5B2xq9L9UYvO-62" edge="1">
          <mxGeometry relative="1" as="geometry" />
        </mxCell>
        <mxCell id="TBWsr7BE5B2xq9L9UYvO-57" value="Browse cryptocurrencies info" style="ellipse;whiteSpace=wrap;html=1;" parent="1" vertex="1">
          <mxGeometry x="170" y="340" width="110" height="40" as="geometry" />
        </mxCell>
        <mxCell id="TBWsr7BE5B2xq9L9UYvO-58" value="View detailed crypto info" style="ellipse;whiteSpace=wrap;html=1;" parent="1" vertex="1">
          <mxGeometry x="290" y="340" width="110" height="40" as="geometry" />
        </mxCell>
        <mxCell id="TBWsr7BE5B2xq9L9UYvO-62" value="DB: get cryptocurrency info" style="ellipse;whiteSpace=wrap;html=1;" parent="1" vertex="1">
          <mxGeometry x="590" y="380" width="110" height="40" as="geometry" />
        </mxCell>
        <mxCell id="TBWsr7BE5B2xq9L9UYvO-64" value="" style="endArrow=none;html=1;rounded=0;exitX=0.5;exitY=1;exitDx=0;exitDy=0;" parent="1" source="TBWsr7BE5B2xq9L9UYvO-58" edge="1">
          <mxGeometry width="50" height="50" relative="1" as="geometry">
            <mxPoint x="350" y="390" as="sourcePoint" />
            <mxPoint x="345" y="400" as="targetPoint" />
          </mxGeometry>
        </mxCell>
        <mxCell id="TBWsr7BE5B2xq9L9UYvO-66" value="Browse news" style="ellipse;whiteSpace=wrap;html=1;" parent="1" vertex="1">
          <mxGeometry x="290" y="430" width="110" height="40" as="geometry" />
        </mxCell>
        <mxCell id="TBWsr7BE5B2xq9L9UYvO-67" value="Post new article" style="ellipse;whiteSpace=wrap;html=1;" parent="1" vertex="1">
          <mxGeometry x="170" y="430" width="110" height="40" as="geometry" />
        </mxCell>
        <mxCell id="TBWsr7BE5B2xq9L9UYvO-68" value="" style="endArrow=classic;html=1;rounded=0;entryX=0.5;entryY=1;entryDx=0;entryDy=0;" parent="1" target="TBWsr7BE5B2xq9L9UYvO-66" edge="1">
          <mxGeometry width="50" height="50" relative="1" as="geometry">
            <mxPoint x="60" y="320" as="sourcePoint" />
            <mxPoint x="400" y="340" as="targetPoint" />
            <Array as="points">
              <mxPoint x="120" y="490" />
              <mxPoint x="345" y="490" />
            </Array>
          </mxGeometry>
        </mxCell>
        <mxCell id="TBWsr7BE5B2xq9L9UYvO-70" value="" style="endArrow=classic;html=1;rounded=0;entryX=0.5;entryY=1;entryDx=0;entryDy=0;" parent="1" target="TBWsr7BE5B2xq9L9UYvO-67" edge="1">
          <mxGeometry width="50" height="50" relative="1" as="geometry">
            <mxPoint x="225" y="490" as="sourcePoint" />
            <mxPoint x="400" y="340" as="targetPoint" />
          </mxGeometry>
        </mxCell>
        <mxCell id="TBWsr7BE5B2xq9L9UYvO-71" value="" style="endArrow=classic;html=1;rounded=0;exitX=0.5;exitY=0;exitDx=0;exitDy=0;entryX=0;entryY=0;entryDx=0;entryDy=0;" parent="1" source="TBWsr7BE5B2xq9L9UYvO-67" target="TBWsr7BE5B2xq9L9UYvO-72" edge="1">
          <mxGeometry width="50" height="50" relative="1" as="geometry">
            <mxPoint x="350" y="390" as="sourcePoint" />
            <mxPoint x="570" y="440" as="targetPoint" />
            <Array as="points">
              <mxPoint x="230" y="410" />
              <mxPoint x="560" y="410" />
            </Array>
          </mxGeometry>
        </mxCell>
        <mxCell id="TBWsr7BE5B2xq9L9UYvO-72" value="DB: change news info" style="ellipse;whiteSpace=wrap;html=1;" parent="1" vertex="1">
          <mxGeometry x="580" y="430" width="110" height="40" as="geometry" />
        </mxCell>
        <mxCell id="TBWsr7BE5B2xq9L9UYvO-73" value="" style="endArrow=none;html=1;rounded=0;exitX=0.5;exitY=0;exitDx=0;exitDy=0;" parent="1" source="TBWsr7BE5B2xq9L9UYvO-66" edge="1">
          <mxGeometry width="50" height="50" relative="1" as="geometry">
            <mxPoint x="350" y="390" as="sourcePoint" />
            <mxPoint x="345" y="410" as="targetPoint" />
          </mxGeometry>
        </mxCell>
        <mxCell id="TBWsr7BE5B2xq9L9UYvO-76" value="Respond to user" style="ellipse;whiteSpace=wrap;html=1;" parent="1" vertex="1">
          <mxGeometry x="170" y="500" width="110" height="40" as="geometry" />
        </mxCell>
        <mxCell id="TBWsr7BE5B2xq9L9UYvO-81" style="edgeStyle=orthogonalEdgeStyle;rounded=0;orthogonalLoop=1;jettySize=auto;html=1;exitX=1;exitY=0.5;exitDx=0;exitDy=0;entryX=0;entryY=0.5;entryDx=0;entryDy=0;" parent="1" source="TBWsr7BE5B2xq9L9UYvO-77" target="TBWsr7BE5B2xq9L9UYvO-82" edge="1">
          <mxGeometry relative="1" as="geometry">
            <mxPoint x="570" y="520.0689655172414" as="targetPoint" />
          </mxGeometry>
        </mxCell>
        <mxCell id="TBWsr7BE5B2xq9L9UYvO-77" value="get DB fields" style="ellipse;whiteSpace=wrap;html=1;" parent="1" vertex="1">
          <mxGeometry x="290" y="500" width="110" height="40" as="geometry" />
        </mxCell>
        <mxCell id="TBWsr7BE5B2xq9L9UYvO-78" value="" style="endArrow=classic;html=1;rounded=0;entryX=0.5;entryY=1;entryDx=0;entryDy=0;" parent="1" source="TBWsr7BE5B2xq9L9UYvO-7" target="TBWsr7BE5B2xq9L9UYvO-77" edge="1">
          <mxGeometry width="50" height="50" relative="1" as="geometry">
            <mxPoint x="290" y="470" as="sourcePoint" />
            <mxPoint x="340" y="420" as="targetPoint" />
            <Array as="points">
              <mxPoint x="345" y="570" />
            </Array>
          </mxGeometry>
        </mxCell>
        <mxCell id="TBWsr7BE5B2xq9L9UYvO-79" value="" style="endArrow=classic;html=1;rounded=0;" parent="1" target="TBWsr7BE5B2xq9L9UYvO-76" edge="1">
          <mxGeometry width="50" height="50" relative="1" as="geometry">
            <mxPoint x="225" y="570" as="sourcePoint" />
            <mxPoint x="340" y="420" as="targetPoint" />
          </mxGeometry>
        </mxCell>
        <mxCell id="TBWsr7BE5B2xq9L9UYvO-80" value="" style="endArrow=classic;html=1;rounded=0;exitX=1;exitY=1;exitDx=0;exitDy=0;entryX=0;entryY=0.5;entryDx=0;entryDy=0;" parent="1" source="TBWsr7BE5B2xq9L9UYvO-76" target="TBWsr7BE5B2xq9L9UYvO-83" edge="1">
          <mxGeometry width="50" height="50" relative="1" as="geometry">
            <mxPoint x="340" y="520" as="sourcePoint" />
            <mxPoint x="600" y="600" as="targetPoint" />
            <Array as="points">
              <mxPoint x="390" y="560" />
            </Array>
          </mxGeometry>
        </mxCell>
        <mxCell id="TBWsr7BE5B2xq9L9UYvO-82" value="DB: return DB fields" style="ellipse;whiteSpace=wrap;html=1;" parent="1" vertex="1">
          <mxGeometry x="570" y="500" width="110" height="40" as="geometry" />
        </mxCell>
        <mxCell id="TBWsr7BE5B2xq9L9UYvO-83" value="DB: save message" style="ellipse;whiteSpace=wrap;html=1;" parent="1" vertex="1">
          <mxGeometry x="580" y="550" width="110" height="40" as="geometry" />
        </mxCell>
        <mxCell id="TBWsr7BE5B2xq9L9UYvO-85" value="" style="endArrow=block;html=1;rounded=0;exitX=0;exitY=0.3333333333333333;exitDx=0;exitDy=0;exitPerimeter=0;entryX=0;entryY=1;entryDx=0;entryDy=0;entryPerimeter=0;endFill=0;" parent="1" source="TBWsr7BE5B2xq9L9UYvO-7" target="TBWsr7BE5B2xq9L9UYvO-4" edge="1">
          <mxGeometry width="50" height="50" relative="1" as="geometry">
            <mxPoint x="370" y="320" as="sourcePoint" />
            <mxPoint x="420" y="270" as="targetPoint" />
            <Array as="points">
              <mxPoint x="10" y="560" />
              <mxPoint x="10" y="360" />
            </Array>
          </mxGeometry>
        </mxCell>
        <mxCell id="TBWsr7BE5B2xq9L9UYvO-86" value="" style="endArrow=none;dashed=1;html=1;dashPattern=1 3;strokeWidth=2;rounded=0;entryX=0.656;entryY=-0.001;entryDx=0;entryDy=0;entryPerimeter=0;exitX=0.65;exitY=1.004;exitDx=0;exitDy=0;exitPerimeter=0;" parent="1" source="TBWsr7BE5B2xq9L9UYvO-5" target="TBWsr7BE5B2xq9L9UYvO-5" edge="1">
          <mxGeometry width="50" height="50" relative="1" as="geometry">
            <mxPoint x="420" y="260" as="sourcePoint" />
            <mxPoint x="470" y="210" as="targetPoint" />
          </mxGeometry>
        </mxCell>
      </root>
    </mxGraphModel>
  </diagram>
</mxfile>
